<svg id="addmoneyicon" xmlns="http://www.w3.org/2000/svg" viewBox="0 0 32 32">
	<path d="M27.39936,16.98364V7.27017a2.2575,2.2575,0,0,0-2.25489-2.25489H2.25489A2.2575,2.2575,0,0,0,0,7.27017V22.776a2.2575,2.2575,0,0,0,2.25489,2.25489H23.02477a5.00786,5.00786,0,1,0,4.37459-8.04721ZM.81789,10.72913H26.58147v1.43131H.81789Zm1.437-4.896H25.14447a1.43867,1.43867,0,0,1,1.437,1.437v3.05H.81789v-3.05A1.43867,1.43867,0,0,1,2.25489,5.83317Zm0,18.37979a1.43867,1.43867,0,0,1-1.437-1.437V12.56939H26.58147v4.41425A5.005,5.005,0,0,0,22.51041,24.213Zm24.73553,2.15835a4.39617,4.39617,0,1,1,4.39616-4.39617A4.40119,4.40119,0,0,1,26.99042,26.37131Z" />
	<path d="M28.754,21.66843H27.29712V20.21156a.30671.30671,0,1,0-.61341,0v1.45687H25.22684a.30671.30671,0,0,0,0,.61342h1.45687v1.45687a.30671.30671,0,1,0,.61341,0V22.28185H28.754a.30671.30671,0,0,0,0-.61342Z" />
	<path d="M8.58786,16.2499H2.04473v2.2492H8.58786Zm-.40895,1.84026H2.45367V16.65885H8.17891Z" />
	<path d="M2.04473,22.58856H15.74441v-2.2492H2.04473Zm.40894-1.84026H15.33546v1.43131H2.45367Z" />
</svg>
