<?xml version="1.0" encoding="utf-8"?>
<!-- Generator: Adobe Illustrator 22.0.0, SVG Export Plug-In . SVG Version: 6.00 Build 0)  -->
<svg version="1.1" id="arrowDown" xmlns="http://www.w3.org/2000/svg" xmlns:xlink="http://www.w3.org/1999/xlink" x="0px" y="0px"
	 viewBox="0 0 19.3 32" style="enable-background:new 0 0 19.3 32;" xml:space="preserve">
<path d="M-3,27.6l-10.6-10.6c-0.6-0.6-0.6-1.5,0-2.1c0,0,0,0,0,0L-3,4.4c0.6-0.6,0.6-1.6,0-2.2l-1.8-1.8c-0.6-0.6-1.5-0.6-2.1,0
	c0,0,0,0,0,0l-14.5,14.5c-0.6,0.6-0.6,1.5,0,2.1c0,0,0,0,0,0l14.5,14.5c0.6,0.6,1.5,0.6,2.1,0c0,0,0,0,0,0l1.8-1.8
	C-2.4,29.2-2.4,28.2-3,27.6z"/>
<path d="M0.4,4.4L11,14.9c0.6,0.6,0.6,1.5,0,2.1c0,0,0,0,0,0L0.4,27.6c-0.6,0.6-0.6,1.6,0,2.1l1.8,1.8c0.6,0.6,1.5,0.6,2.1,0
	c0,0,0,0,0,0l14.5-14.5c0.6-0.6,0.6-1.5,0-2.1c0,0,0,0,0,0L4.4,0.5c-0.6-0.6-1.5-0.6-2.1,0c0,0,0,0,0,0L0.4,2.2
	C-0.1,2.8-0.1,3.8,0.4,4.4z"/>
</svg>
