<svg id="historyicon" xmlns="http://www.w3.org/2000/svg" viewBox="0 0 32 32">
	<path d="M9.003,22.67962H3.44571a.32691.32691,0,1,0,0,.65381H9.003a.32691.32691,0,0,0,0-.65381Z" />
	<path d="M7.36853,25.73076H3.44571a.3269.3269,0,1,0,0,.6538H7.36853a.3269.3269,0,0,0,0-.6538Z" />
	<path d="M3.44571,8.07805h7.51874a.3269.3269,0,1,0,0-.6538H3.44571a.3269.3269,0,1,0,0,.6538Z" />
	<path d="M9.65684,10.80229a.32692.32692,0,0,0,.32691.3269h4.57662a.3269.3269,0,1,0,0-.6538H9.98375A.32692.32692,0,0,0,9.65684,10.80229Z" />
	<path d="M16.84869,11.12919h4.57662a.3269.3269,0,1,0,0-.6538H16.84869a.3269.3269,0,1,0,0,.6538Z" />
	<path d="M3.44571,11.12919H8.02233a.3269.3269,0,1,0,0-.6538H3.44571a.3269.3269,0,1,0,0,.6538Z" />
	<path d="M20.11771,13.52637H14.56037a.3269.3269,0,0,0,0,.6538h5.55734a.3269.3269,0,0,0,0-.6538Z" />
	<path d="M3.44571,14.18017h7.51874a.3269.3269,0,1,0,0-.6538H3.44571a.3269.3269,0,1,0,0,.6538Z" />
	<path d="M3.44571,17.23131h7.51874a.3269.3269,0,0,0,0-.6538H3.44571a.3269.3269,0,1,0,0,.6538Z" />
	<path d="M14.88728,16.57751H12.92586a.3269.3269,0,0,0,0,.6538h1.96142a.3269.3269,0,0,0,0-.6538Z" />
	<path d="M3.44571,20.28245H7.36853a.32691.32691,0,0,0,0-.65381H3.44571a.32691.32691,0,1,0,0,.65381Z" />
	<path d="M13.25277,19.62864H9.32994a.32691.32691,0,0,0,0,.65381h3.92283a.32691.32691,0,0,0,0-.65381Z" />
	<path d="M28.10925,25.11128l-2.887-1.43994.06065-2.46278a.32674.32674,0,0,0-.31876-.33472.33507.33507,0,0,0-.33472.31876l-.07087,2.87811,3.259,1.62573a.32694.32694,0,1,0,.29179-.58516Z" />
	<path d="M30.87115,20.97424a6.9888,6.9888,0,0,0-3.97278-3.63375,7.11621,7.11621,0,0,0-.98174-.2704h.08531V5.76755L20.23439,0H6.50179A6.04517,6.04517,0,0,0,.46336,6.03843V25.96157A6.04517,6.04517,0,0,0,6.50179,32H19.96351a5.67767,5.67767,0,0,0,3.39566-1.10826,6.94756,6.94756,0,0,0,1.12207.09579A7.03473,7.03473,0,0,0,31.1109,26.3528,6.9887,6.9887,0,0,0,30.87115,20.97424ZM23.76966,5.46284H20.4502l.02825-3.29137Zm6.41928,20.5554a6.04774,6.04774,0,0,1-7.82618,3.59528,5.32662,5.32662,0,0,1-3.261-3.19224.49028.49028,0,1,0-.94558.25954,6.16256,6.16256,0,0,0,3.48087,3.688,4.44637,4.44637,0,0,1-1.6735.32357H6.50179A4.73627,4.73627,0,0,1,1.771,25.96157V6.03843A4.73627,4.73627,0,0,1,6.50179,1.30761H19.17814l-.0389,4.53752a.91723.91723,0,0,0,.91733.92532h4.63776V16.924a7.024,7.024,0,0,0-6.53055,3.97025l-1.17255-2.59843a.32691.32691,0,0,0-.596.2688l1.47527,3.26955a.49042.49042,0,0,0,.09818.19524.54829.54829,0,0,0,.697.18971L22.00825,20.602a.327.327,0,1,0-.28476-.58868l-2.66742,1.29051a6.05326,6.05326,0,0,1,11.13287,4.7144Z" />
</svg>
