<svg id="infoicon" xmlns="http://www.w3.org/2000/svg" viewBox="0 0 32 32">
	<path d="M19.92157,21.75159H18.61438V13.647a.78516.78516,0,0,0-.7843-.7843H12.07843a.78516.78516,0,0,0-.7843.7843v2.0915a.78516.78516,0,0,0,.7843.7843h.7843v5.22876h-.7843a.78519.78519,0,0,0-.7843.7843v2.09155a.78515.78515,0,0,0,.7843.7843h7.84314a.78515.78515,0,0,0,.7843-.7843V22.53589A.78519.78519,0,0,0,19.92157,21.75159ZM19.66016,24.366H12.33984V22.79736h.78431a.78516.78516,0,0,0,.78436-.7843V16.26141a.78517.78517,0,0,0-.78436-.7843h-.78431v-1.5686h5.22882v8.10455a.78515.78515,0,0,0,.78431.7843h1.30719Z" />
	<path d="M15.47711,11.817a2.61438,2.61438,0,1,0-2.61438-2.61432A2.61739,2.61739,0,0,0,15.47711,11.817Zm0-4.183a1.56864,1.56864,0,1,1-1.5686,1.56867A1.57038,1.57038,0,0,1,15.47711,7.634Z" />
	<path d="M16,0A16,16,0,1,0,32,16,16.01786,16.01786,0,0,0,16,0Zm0,30.11761A14.11765,14.11765,0,1,1,30.11768,16,14.13338,14.13338,0,0,1,16,30.11761Z" />
</svg>
