<svg id="pdf" xmlns="http://www.w3.org/2000/svg" viewBox="0 0 32 32">
	<path d="M27.80469,6.862,21.138.19531A.66615.66615,0,0,0,20.66663,0h-14A2.66927,2.66927,0,0,0,4,2.66669V29.33337A2.66927,2.66927,0,0,0,6.66669,32H25.33337A2.66927,2.66927,0,0,0,28,29.33331v-22A.66612.66612,0,0,0,27.80469,6.862ZM21.33331,2.27606l4.39063,4.39063H22.66663a1.33507,1.33507,0,0,1-1.33332-1.33332Zm5.33338,27.05725a1.33508,1.33508,0,0,1-1.33332,1.33332H6.66669a1.33508,1.33508,0,0,1-1.33332-1.33332V2.66669A1.33508,1.33508,0,0,1,6.66669,1.33337H20v4A2.66927,2.66927,0,0,0,22.66669,8h4Z" />
	<path d="M19.39906,19.57094a19.32138,19.32138,0,0,1-1.59437-1.37563c-.50781-.50781-.96031-1-1.3535-1.46875a14.92605,14.92605,0,0,0,.88218-3.39325c0-2.21287-.7995-2.66668-2-2.66668-.91212,0-2,.47393-2,2.7305a6.39243,6.39243,0,0,0,1.625,3.60612c-.26431.80663-.57487,1.737-.92381,2.78581-.168.50325-.35025.96938-.543,1.40038-.15687.06969-.30925.14062-.45637.21419-.52994.265-1.03319.50325-1.5.72462C9.40625,23.13606,8,23.80275,8,25.11913c0,.95574,1.03844,1.5475,2,1.5475,1.23956,0,3.11131-1.65563,4.4785-4.44469a26.52307,26.52307,0,0,1,4.57619-1.23438A7.64787,7.64787,0,0,0,22,22.66663c1.653,0,2-.95575,2-1.75719,0-1.57619-1.80081-1.57619-2.66669-1.57619A15.7915,15.7915,0,0,0,19.39906,19.57094ZM9.99994,25.33331a.98255.98255,0,0,1-.63321-.1849c-.36659-.40837,2.49615-1.7005,2.7394-1.81572.08656-.041.1745-.08206.26368-.12438C11.3685,24.66019,10.37825,25.33331,9.99994,25.33331Zm4.66675-11.93618C14.66669,12,15.10031,12,15.33338,12c.47137,0,.66668,0,.66668,1.33331a10.68947,10.68947,0,0,1-.53062,2.08207A4.09644,4.09644,0,0,1,14.66669,13.39713Zm.51106,7.16537q.06254-.17382.12112-.35156c.24738-.74219.47007-1.40888.66863-2.00913q.415.457.89456.93619c.125.125.43488.40625.84769.75844C16.888,20.0755,16.01369,20.2975,15.17775,20.5625Zm7.47.35422a.28939.28939,0,0,1-.034.28258.30935.30935,0,0,1-.14551.09609.79.79,0,0,1-.68638-.07711c-.21137-.12058-.42738-.23756-.63088-.37127-.04012-.02636-.1792-.15388-.22267-.14907.18812-.02082.32681-.03125.40493-.03125a5.26549,5.26549,0,0,1,.9753.05953A.44018.44018,0,0,1,22.64778,20.91672Z" />
</svg>
