<svg id="place" xmlns="http://www.w3.org/2000/svg" viewBox="0 0 32 32">
	<path class="cls-1" d="M15.9997,6.00145A6.61553,6.61553,0,1,0,22.61523,12.617,6.62288,6.62288,0,0,0,15.9997,6.00145Zm0,11.0334A4.41787,4.41787,0,1,1,20.41756,12.617,4.423,4.423,0,0,1,15.9997,17.03485Z" />
	<path class="cls-1" d="M27.68981,7.4764q-.25754-.532-.56122-1.03713a13.44869,13.44869,0,0,0-2.1762-2.72991,13.64452,13.64452,0,0,0-2.78786-2.07855A12.84788,12.84788,0,0,0,18.94315.3474a12.65016,12.65016,0,0,0-3.612-.33211A11.99671,11.99671,0,0,0,11.92093.686a13.167,13.167,0,0,0-3.09154,1.571A13.6717,13.6717,0,0,0,6.22932,4.57211,13.16737,13.16737,0,0,0,4.309,7.47694,12.59773,12.59773,0,0,0,3.05086,14.5555a11.47918,11.47918,0,0,0,2.66714,5.616c1.86125,2.35862,3.81,4.7033,5.69375,6.97179l.66692.80266c.41152.49576,1.31023,1.7019,2.467,3.30937a1.7921,1.7921,0,0,0,2.90911-.00107c1.17931-1.63859,2.055-2.81361,2.46594-3.3083l.6256-.7533c1.89828-2.28459,3.85986-4.64536,5.7356-7.02008A11.51106,11.51106,0,0,0,28.94961,14.555,12.60048,12.60048,0,0,0,27.68981,7.4764Zm-.91855,6.78293a9.34518,9.34518,0,0,1-2.21484,4.55039c-1.85749,2.35326-3.8105,4.70438-5.70019,6.97823l-.62668.75437c-.49683.59771-1.43148,1.86931-2.22985,2.97243-.71253-.98509-1.711-2.34682-2.22986-2.97243l-.66746-.80373c-1.87574-2.25776-3.81479-4.59171-5.65941-6.92887a9.343,9.343,0,0,1-2.21484-4.55039A10.44087,10.44087,0,0,1,6.28887,8.432,10.94221,10.94221,0,0,1,7.8883,6.01326a11.48434,11.48434,0,0,1,2.1821-1.94281,10.97423,10.97423,0,0,1,2.57646-1.31023,9.80193,9.80193,0,0,1,2.78625-.54942q.27525-.01287.54673-.01287a10.21651,10.21651,0,0,1,2.4375.28329,10.66212,10.66212,0,0,1,2.66982,1.065A11.42148,11.42148,0,0,1,23.42433,5.29a11.248,11.248,0,0,1,1.82208,2.283q.25272.4185.46465.859A10.44339,10.44339,0,0,1,26.77126,14.25933Z" />
</svg>
