<svg id="scheduleicon" xmlns="http://www.w3.org/2000/svg" viewBox="0 0 32 32">
	<path d="M28.15179,2.24694h-3.0272V1.1483a1.13915,1.13915,0,0,0-.33546-.81,1.03044,1.03044,0,0,0-1.45517,0,1.1392,1.1392,0,0,0-.33546.81V2.24694H19.75863V1.1483a1.13915,1.13915,0,0,0-.33546-.81,1.05361,1.05361,0,0,0-1.45487,0,1.13747,1.13747,0,0,0-.33576.81V2.24694H14.393V1.12308A1.13781,1.13781,0,0,0,14.05721.3129a1.05375,1.05375,0,0,0-1.45487,0,1.13925,1.13925,0,0,0-.33547.81018V2.24694H9.027V1.1483a1.13916,1.13916,0,0,0-.33547-.81,1.03043,1.03043,0,0,0-1.45516,0,1.13916,1.13916,0,0,0-.33547.81V2.24694h-3.053A3.8523,3.8523,0,0,0,0,6.09485v22.0357a3.85231,3.85231,0,0,0,3.84791,3.84792H28.15179A3.85237,3.85237,0,0,0,32,28.13055V6.09485A3.85236,3.85236,0,0,0,28.15179,2.24694ZM1.21491,6.09485a2.63591,2.63591,0,0,1,2.633-2.633H28.15179a2.63616,2.63616,0,0,1,2.6333,2.633V7.6605H1.21491ZM23.30223,1.1483A.83668.83668,0,0,1,23.54871.553a.72628.72628,0,0,1,1.02567,0,.83665.83665,0,0,1,.24649.5953V2.24694H23.30223Zm-5.366,0A.83547.83547,0,0,1,18.18305.553a.74273.74273,0,0,1,1.02537,0,.83665.83665,0,0,1,.24649.5953V2.24694H17.93627ZM12.5706,1.12308a.837.837,0,0,1,.24648-.59544.74274.74274,0,0,1,1.02538,0,.83555.83555,0,0,1,.24678.59544V2.24694H12.5706Zm-5.366.02522A.83668.83668,0,0,1,7.45112.553a.72629.72629,0,0,1,1.02568,0,.83668.83668,0,0,1,.24648.5953V2.24694H7.20464ZM28.15179,30.76356H3.84791a2.63591,2.63591,0,0,1-2.633-2.633V8.268H30.78509V28.13055A2.63616,2.63616,0,0,1,28.15179,30.76356Z" />
	<path d="M4.91393,14.22729h3.341v-3.341h-3.341ZM5.21766,11.19H7.95121v2.73355H5.21766Z" />
	<path d="M11.19078,14.22729h3.341v-3.341h-3.341ZM11.4945,11.19h2.73356v2.73355H11.4945Z" />
	<path d="M17.46792,14.22729h3.341v-3.341h-3.341ZM17.77165,11.19H20.5052v2.73355H17.77165Z" />
	<path d="M27.08607,10.88628h-3.341v3.341h3.341Zm-.30373,3.03728H24.04879V11.19h2.73355Z" />
	<path d="M4.91393,20.9093h3.341v-3.341h-3.341ZM5.21766,17.872H7.95121v2.73355H5.21766Z" />
	<path d="M11.19078,20.9093h3.341v-3.341h-3.341ZM11.4945,17.872h2.73356v2.73355H11.4945Z" />
	<path d="M17.46792,20.9093h3.341v-3.341h-3.341Zm.30373-3.03728H20.5052v2.73355H17.77165Z" />
	<path d="M27.08607,17.56829h-3.341v3.341h3.341Zm-.30373,3.03728H24.04879V17.872h2.73355Z" />
	<path d="M4.91393,27.59132h3.341v-3.341h-3.341ZM5.21766,24.554H7.95121v2.73355H5.21766Z" />
	<path d="M11.19078,27.59132h3.341v-3.341h-3.341ZM11.4945,24.554h2.73356v2.73355H11.4945Z" />
	<path d="M17.46792,27.59132h3.341v-3.341h-3.341Zm.30373-3.03728H20.5052v2.73355H17.77165Z" />
	<path d="M26.70374,24.91842,24.92438,26.9938l-1.131-.96947a.30365.30365,0,0,0-.39508.46123l1.5919,1.36485,2.17444-2.53661a.30364.30364,0,1,0-.46093-.39538Z" />
</svg>
