<svg id="usericon" xmlns="http://www.w3.org/2000/svg" viewBox="0 0 32 32">
	<path d="M16,0A16,16,0,1,0,32,16,16.01817,16.01817,0,0,0,16,0Zm0,30.57778A14.57778,14.57778,0,1,1,30.57778,16,14.59432,14.59432,0,0,1,16,30.57778Z" />
	<path d="M16,16.97778a6.66667,6.66667,0,1,0-6.66667-6.66667A6.67463,6.67463,0,0,0,16,16.97778ZM16,4.88889a5.42222,5.42222,0,1,1-5.42222,5.42222A5.42867,5.42867,0,0,1,16,4.88889Z" />
	<path d="M25.82847,19.725c-1.09861-1.01458-3.166-.85139-5.78194-.64306-1.22361.09723-2.61111.20695-4.04653.20695-1.43507,0-2.82257-.10972-4.04618-.20695-2.617-.20833-4.68368-.37152-5.78264.64306a2.55316,2.55316,0,0,0-.749,1.96389c0,3.73819,4.64618,6.66667,10.57778,6.66667,5.93125,0,10.57778-2.92848,10.57778-6.66667A2.5521,2.5521,0,0,0,25.82847,19.725ZM16,27.11111c-5.14653,0-9.33333-2.43264-9.33333-5.42222a1.28929,1.28929,0,0,1,.349-1.04931,3.30458,3.30458,0,0,1,2.12256-.47014c.79028,0,1.72362.07431,2.717.15278,1.24687.09931,2.66042.21111,4.14479.21111,1.48472,0,2.89792-.1118,4.14514-.21111,2.22222-.175,4.14028-.32778,4.83889.31736a1.28794,1.28794,0,0,1,.3493,1.04931C25.33333,24.67847,21.14653,27.11111,16,27.11111Z" />
</svg>
