<svg id="websiteicon" xmlns="http://www.w3.org/2000/svg" viewBox="0 0 32 32">
	<path d="M16,0A16,16,0,1,0,32,16,16.01833,16.01833,0,0,0,16,0Zm2.66937,29.73785a13.72138,13.72138,0,0,1-5.339-.00006,11.39293,11.39293,0,0,1-4.48944-6.17645A27.5285,27.5285,0,0,0,16,24.46875a27.53026,27.53026,0,0,0,7.15894-.90735A11.39349,11.39349,0,0,1,18.66937,29.73785ZM16,23.46875a26.0589,26.0589,0,0,1-7.53027-1.06384A23.16032,23.16032,0,0,1,7.6084,16.5H24.3916a23.16028,23.16028,0,0,1-.86139,5.90491A26.06054,26.06054,0,0,1,16,23.46875ZM13.33038,2.26221a13.72138,13.72138,0,0,1,5.339-.00006c1.99542,1.15716,3.65851,3.566,4.671,6.691A27.42963,27.42963,0,0,0,16,8a27.428,27.428,0,0,0-7.34045.95319C9.67188,5.82819,11.3349,3.41943,13.33038,2.26221ZM16,9a25.95591,25.95591,0,0,1,7.67346,1.1073A23.43634,23.43634,0,0,1,24.3916,15.5H7.6084a23.436,23.436,0,0,1,.718-5.3927A25.95674,25.95674,0,0,1,16,9Zm13.97467,6.5h-4.5838a24.32144,24.32144,0,0,0-.60956-5.009A10.0868,10.0868,0,0,1,29.856,14.10291,14.02093,14.02093,0,0,1,29.97467,15.5Zm-23.36554,0H2.02533A14.02093,14.02093,0,0,1,2.144,14.10291,10.0868,10.0868,0,0,1,7.21869,10.491,24.32144,24.32144,0,0,0,6.60913,15.5Zm-4.5838,1h4.5838a24.19,24.19,0,0,0,.72333,5.52026A10.379,10.379,0,0,1,2.2356,18.49573,13.99884,13.99884,0,0,1,2.02533,16.5Zm23.36554,0h4.5838a13.99884,13.99884,0,0,1-.21027,1.99573,10.379,10.379,0,0,1-5.09686,3.52453A24.19,24.19,0,0,0,25.39087,16.5Zm4.04022-4.41974a13.92032,13.92032,0,0,0-4.96-2.773A15.64014,15.64014,0,0,0,21.0697,2.9646,14.04713,14.04713,0,0,1,29.43109,12.08026ZM10.9303,2.9646A15.64014,15.64014,0,0,0,7.52887,9.30731a13.92032,13.92032,0,0,0-4.96,2.773A14.04713,14.04713,0,0,1,10.9303,2.9646ZM2.78467,20.57916a14.39506,14.39506,0,0,0,4.89557,2.63068,15.27766,15.27766,0,0,0,3.25012,5.82562A14.05073,14.05073,0,0,1,2.78467,20.57916Zm18.285,8.4563a15.27766,15.27766,0,0,0,3.25012-5.82562,14.39506,14.39506,0,0,0,4.89557-2.63068A14.05073,14.05073,0,0,1,21.06964,29.03546Z" />
</svg>
